<mxfile host="65bd71144e">
    <diagram id="ZWdekoGJzTY7XvXSQLcq" name="Страница 1">
        <mxGraphModel dx="1144" dy="767" grid="1" gridSize="10" guides="1" tooltips="1" connect="1" arrows="1" fold="1" page="1" pageScale="1" pageWidth="827" pageHeight="1169" math="0" shadow="0">
            <root>
                <mxCell id="0"/>
                <mxCell id="1" parent="0"/>
                <mxCell id="2" style="edgeStyle=none;html=1;fontSize=14;entryX=0;entryY=0.5;entryDx=0;entryDy=0;jumpStyle=arc;" parent="1" target="9" edge="1">
                    <mxGeometry relative="1" as="geometry">
                        <mxPoint x="140" y="158" as="targetPoint"/>
                        <mxPoint x="30" y="180" as="sourcePoint"/>
                    </mxGeometry>
                </mxCell>
                <mxCell id="7" style="edgeStyle=none;html=1;fontSize=14;exitX=1;exitY=0.5;exitDx=0;exitDy=0;" parent="1" source="27" edge="1">
                    <mxGeometry relative="1" as="geometry">
                        <mxPoint x="1060" y="330" as="targetPoint"/>
                        <mxPoint x="1010" y="345.9" as="sourcePoint"/>
                    </mxGeometry>
                </mxCell>
                <mxCell id="18" style="edgeStyle=orthogonalEdgeStyle;rounded=0;html=1;exitX=1;exitY=0.25;exitDx=0;exitDy=0;entryX=0;entryY=0.5;entryDx=0;entryDy=0;" parent="1" source="9" target="20" edge="1">
                    <mxGeometry relative="1" as="geometry">
                        <mxPoint x="404" y="250" as="targetPoint"/>
                        <Array as="points">
                            <mxPoint x="340" y="165"/>
                            <mxPoint x="390" y="165"/>
                            <mxPoint x="390" y="250"/>
                        </Array>
                    </mxGeometry>
                </mxCell>
                <mxCell id="9" value="&lt;span style=&quot;scrollbar-color: light-dark(#e2e2e2, #4b4b4b)&lt;br/&gt;&#x9;&#x9;&#x9;&#x9;&#x9;light-dark(#fbfbfb, var(--dark-panel-color)); font-size: 14px;&quot;&gt;&lt;font style=&quot;color: rgb(0, 0, 0);&quot;&gt;Получить данные&amp;nbsp;&lt;/font&gt;&lt;/span&gt;&lt;div style=&quot;scrollbar-color: light-dark(#e2e2e2, #4b4b4b)&lt;br/&gt;&#x9;&#x9;&#x9;&#x9;&#x9;light-dark(#fbfbfb, var(--dark-panel-color));&quot;&gt;&lt;font&gt;&lt;span style=&quot;scrollbar-color: light-dark(#e2e2e2, #4b4b4b)&lt;br/&gt;&#x9;&#x9;&#x9;&#x9;&#x9;light-dark(#fbfbfb, var(--dark-panel-color)); font-size: 14px;&quot;&gt;&lt;font style=&quot;color: rgb(0, 0, 0);&quot;&gt;сжимаемого&amp;nbsp;&lt;/font&gt;&lt;/span&gt;&lt;span style=&quot;color: light-dark(rgb(0, 0, 0), rgb(237, 237, 237)); font-size: 14px; background-color: transparent;&quot;&gt;изображения&amp;nbsp;&lt;/span&gt;&lt;/font&gt;&lt;/div&gt;&lt;div style=&quot;scrollbar-color: light-dark(#e2e2e2, #4b4b4b)&lt;br/&gt;&#x9;&#x9;&#x9;&#x9;&#x9;light-dark(#fbfbfb, var(--dark-panel-color));&quot;&gt;&lt;font&gt;&lt;span style=&quot;color: light-dark(rgb(0, 0, 0), rgb(237, 237, 237)); font-size: 14px; background-color: transparent;&quot;&gt;в виде&amp;nbsp;&lt;/span&gt;&lt;span style=&quot;background-color: transparent; scrollbar-color: light-dark(#e2e2e2, #4b4b4b)&lt;br/&gt;&#x9;&#x9;&#x9;&#x9;&#x9;light-dark(#fbfbfb, var(--dark-panel-color)); font-size: 14px;&quot;&gt;&lt;font style=&quot;color: rgb(0, 0, 0);&quot;&gt;байтовой&amp;nbsp;&lt;/font&gt;&lt;/span&gt;&lt;/font&gt;&lt;/div&gt;&lt;div style=&quot;scrollbar-color: light-dark(#e2e2e2, #4b4b4b)&lt;br/&gt;&#x9;&#x9;&#x9;&#x9;&#x9;light-dark(#fbfbfb, var(--dark-panel-color));&quot;&gt;&lt;span style=&quot;background-color: transparent; font-size: 14px;&quot;&gt;&lt;font style=&quot;color: rgb(0, 0, 0);&quot;&gt;строки&lt;/font&gt;&lt;/span&gt;&lt;/div&gt;" style="rounded=0;whiteSpace=wrap;html=1;" parent="1" vertex="1">
                    <mxGeometry x="140" y="135" width="200" height="90" as="geometry"/>
                </mxCell>
                <mxCell id="10" value="&lt;span style=&quot;color: rgb(0, 0, 0);&quot;&gt;Входное&amp;nbsp;&lt;/span&gt;&lt;div&gt;&lt;span style=&quot;color: rgb(0, 0, 0);&quot;&gt;изображение&lt;/span&gt;&lt;/div&gt;" style="text;html=1;align=center;verticalAlign=middle;resizable=0;points=[];autosize=1;strokeColor=none;fillColor=none;fontSize=14;" parent="1" vertex="1">
                    <mxGeometry x="25" y="135" width="110" height="50" as="geometry"/>
                </mxCell>
                <mxCell id="15" value="Сжатое &lt;br&gt;изображение" style="text;html=1;align=center;verticalAlign=middle;resizable=0;points=[];autosize=1;strokeColor=none;fillColor=none;fontSize=14;" parent="1" vertex="1">
                    <mxGeometry x="950" y="285" width="110" height="50" as="geometry"/>
                </mxCell>
                <mxCell id="17" value="A1" style="text;html=1;align=center;verticalAlign=middle;resizable=0;points=[];autosize=1;strokeColor=default;fillColor=none;fontSize=14;" parent="1" vertex="1">
                    <mxGeometry x="300" y="195" width="40" height="30" as="geometry"/>
                </mxCell>
                <mxCell id="19" value="&lt;font style=&quot;font-size: 14px;&quot;&gt;&lt;font style=&quot;color: rgb(0, 0, 0);&quot;&gt;Байтовая&lt;/font&gt;&amp;nbsp;&lt;/font&gt;&lt;div&gt;&lt;font style=&quot;font-size: 14px; color: rgb(0, 0, 0);&quot;&gt;строка&lt;/font&gt;&lt;/div&gt;" style="text;html=1;align=center;verticalAlign=middle;resizable=0;points=[];autosize=1;strokeColor=none;fillColor=none;" parent="1" vertex="1">
                    <mxGeometry x="344" y="109.91" width="90" height="50" as="geometry"/>
                </mxCell>
                <mxCell id="192" style="edgeStyle=orthogonalEdgeStyle;html=1;exitX=1.001;exitY=0.723;exitDx=0;exitDy=0;entryX=0;entryY=0.5;entryDx=0;entryDy=0;rounded=0;exitPerimeter=0;" parent="1" source="20" target="27" edge="1">
                    <mxGeometry relative="1" as="geometry">
                        <Array as="points">
                            <mxPoint x="670" y="270"/>
                            <mxPoint x="670" y="330"/>
                        </Array>
                    </mxGeometry>
                </mxCell>
                <mxCell id="20" value="&lt;font style=&quot;color: rgb(0, 0, 0); font-size: 14px;&quot;&gt;Сформировать байтовую&lt;/font&gt;&lt;div&gt;&lt;font style=&quot;color: rgb(0, 0, 0); font-size: 14px;&quot;&gt;строку с сжатым&amp;nbsp;&lt;/font&gt;&lt;/div&gt;&lt;div&gt;&lt;font style=&quot;color: rgb(0, 0, 0); font-size: 14px;&quot;&gt;изображением&lt;/font&gt;&lt;/div&gt;" style="rounded=0;whiteSpace=wrap;html=1;" parent="1" vertex="1">
                    <mxGeometry x="430" y="205" width="200" height="90" as="geometry"/>
                </mxCell>
                <mxCell id="21" value="A2" style="text;html=1;align=center;verticalAlign=middle;resizable=0;points=[];autosize=1;strokeColor=default;fillColor=none;fontSize=14;" parent="1" vertex="1">
                    <mxGeometry x="590" y="265" width="40" height="30" as="geometry"/>
                </mxCell>
                <mxCell id="27" value="&lt;span style=&quot;font-size: 14px;&quot;&gt;&lt;font style=&quot;color: rgb(0, 0, 0);&quot;&gt;Создать файл&lt;br&gt;&amp;nbsp;с сжатым&amp;nbsp;&lt;/font&gt;&lt;font style=&quot;color: rgb(0, 0, 0);&quot;&gt;изображением&lt;/font&gt;&lt;/span&gt;&lt;div&gt;&lt;span style=&quot;font-size: 14px;&quot;&gt;&lt;font style=&quot;color: rgb(0, 0, 0);&quot;&gt;и информацией для его распаковки&lt;/font&gt;&lt;/span&gt;&lt;/div&gt;" style="rounded=0;whiteSpace=wrap;html=1;" parent="1" vertex="1">
                    <mxGeometry x="750" y="285" width="200" height="90" as="geometry"/>
                </mxCell>
                <mxCell id="30" value="A3" style="text;html=1;align=center;verticalAlign=middle;resizable=0;points=[];autosize=1;strokeColor=default;fillColor=none;fontSize=14;" parent="1" vertex="1">
                    <mxGeometry x="910" y="345" width="40" height="30" as="geometry"/>
                </mxCell>
                <mxCell id="41" value="Байтовая строка" style="text;html=1;align=center;verticalAlign=middle;resizable=0;points=[];autosize=1;strokeColor=none;fillColor=none;fontSize=14;" parent="1" vertex="1">
                    <mxGeometry x="690" y="175" width="140" height="30" as="geometry"/>
                </mxCell>
                <mxCell id="50" style="edgeStyle=orthogonalEdgeStyle;rounded=0;jumpStyle=arc;html=1;exitX=1.001;exitY=0.289;exitDx=0;exitDy=0;entryX=-0.003;entryY=0.099;entryDx=0;entryDy=0;entryPerimeter=0;startArrow=none;startFill=0;exitPerimeter=0;" parent="1" source="20" target="27" edge="1">
                    <mxGeometry relative="1" as="geometry">
                        <mxPoint x="680" y="308" as="sourcePoint"/>
                        <Array as="points">
                            <mxPoint x="700" y="231"/>
                            <mxPoint x="700" y="294"/>
                        </Array>
                        <mxPoint x="760" y="295" as="targetPoint"/>
                    </mxGeometry>
                </mxCell>
                <mxCell id="129" style="edgeStyle=orthogonalEdgeStyle;html=1;rounded=0;curved=0;exitX=0.999;exitY=0.576;exitDx=0;exitDy=0;exitPerimeter=0;entryX=-0.004;entryY=0.365;entryDx=0;entryDy=0;entryPerimeter=0;" parent="1" source="20" target="27" edge="1">
                    <mxGeometry relative="1" as="geometry">
                        <mxPoint x="750" y="330" as="targetPoint"/>
                        <mxPoint x="630" y="255" as="sourcePoint"/>
                        <Array as="points">
                            <mxPoint x="680" y="257"/>
                            <mxPoint x="680" y="318"/>
                        </Array>
                    </mxGeometry>
                </mxCell>
                <mxCell id="49" value="&lt;font style=&quot;color: rgb(0, 0, 0);&quot;&gt;Таблица&amp;nbsp;&lt;/font&gt;&lt;div&gt;&lt;font&gt;&lt;font style=&quot;color: rgb(0, 0, 0);&quot;&gt;частот&amp;nbsp;&lt;/font&gt;&lt;span style=&quot;background-color: transparent;&quot;&gt;&lt;font style=&quot;color: rgb(0, 0, 0);&quot;&gt;символов&lt;/font&gt;&lt;/span&gt;&lt;/font&gt;&lt;/div&gt;" style="text;html=1;align=center;verticalAlign=middle;resizable=0;points=[];autosize=1;strokeColor=none;fillColor=none;fontSize=14;" parent="1" vertex="1">
                    <mxGeometry x="514" y="305" width="130" height="50" as="geometry"/>
                </mxCell>
                <mxCell id="108" value="&lt;font style=&quot;color: rgb(0, 0, 0);&quot;&gt;Размер&amp;nbsp;&lt;/font&gt;&lt;span style=&quot;background-color: transparent;&quot;&gt;&lt;font style=&quot;color: rgb(0, 0, 0);&quot;&gt;кода&lt;/font&gt; &lt;font style=&quot;color: rgb(0, 0, 0);&quot;&gt;LZW&amp;nbsp;&lt;/font&gt;&lt;/span&gt;&lt;span style=&quot;background-color: transparent;&quot;&gt;&lt;font style=&quot;color: rgb(0, 0, 0);&quot;&gt;в байтах&lt;/font&gt;&lt;/span&gt;" style="text;html=1;align=center;verticalAlign=middle;resizable=0;points=[];autosize=1;strokeColor=none;fillColor=none;fontSize=14;" parent="1" vertex="1">
                    <mxGeometry x="737" y="205" width="200" height="30" as="geometry"/>
                </mxCell>
                <mxCell id="110" style="edgeStyle=orthogonalEdgeStyle;rounded=0;jumpStyle=arc;html=1;" parent="1" edge="1">
                    <mxGeometry relative="1" as="geometry">
                        <mxPoint x="750" y="305" as="targetPoint"/>
                        <Array as="points">
                            <mxPoint x="690" y="245"/>
                            <mxPoint x="690" y="305"/>
                            <mxPoint x="750" y="305"/>
                        </Array>
                        <mxPoint x="630" y="245" as="sourcePoint"/>
                    </mxGeometry>
                </mxCell>
                <mxCell id="130" value="&lt;font style=&quot;color: rgb(0, 0, 0);&quot;&gt;Список уникальных&amp;nbsp;&lt;/font&gt;&lt;div&gt;&lt;font&gt;&lt;span style=&quot;background-color: transparent;&quot;&gt;&lt;font style=&quot;color: rgb(0, 0, 0);&quot;&gt;пикселей&amp;nbsp;&lt;/font&gt;&lt;/span&gt;&lt;span style=&quot;color: light-dark(rgb(0, 0, 0), rgb(237, 237, 237)); background-color: transparent;&quot;&gt;в&amp;nbsp;&lt;/span&gt;&lt;span style=&quot;color: light-dark(rgb(0, 0, 0), rgb(237, 237, 237)); background-color: transparent;&quot;&gt;изображении&lt;/span&gt;&lt;/font&gt;&lt;/div&gt;" style="text;html=1;align=center;verticalAlign=middle;resizable=0;points=[];autosize=1;strokeColor=none;fillColor=none;fontSize=14;" parent="1" vertex="1">
                    <mxGeometry x="720" y="235.00000000000006" width="190" height="50" as="geometry"/>
                </mxCell>
                <mxCell id="189" value="" style="edgeStyle=isometricEdgeStyle;endArrow=none;html=1;" parent="1" edge="1">
                    <mxGeometry width="50" height="100" relative="1" as="geometry">
                        <mxPoint x="700" y="235" as="sourcePoint"/>
                        <mxPoint x="717" y="205" as="targetPoint"/>
                    </mxGeometry>
                </mxCell>
                <mxCell id="191" value="&lt;font style=&quot;color: rgb(0, 0, 0);&quot;&gt;Кол-во байт на сохранение&lt;/font&gt;&lt;div&gt;&lt;font style=&quot;color: rgb(0, 0, 0);&quot;&gt;&amp;nbsp;частоты одного символа&lt;/font&gt;&lt;/div&gt;" style="text;html=1;align=center;verticalAlign=middle;resizable=0;points=[];autosize=1;strokeColor=none;fillColor=none;fontSize=14;" parent="1" vertex="1">
                    <mxGeometry x="579" y="375" width="200" height="50" as="geometry"/>
                </mxCell>
                <mxCell id="193" style="edgeStyle=orthogonalEdgeStyle;html=1;rounded=0;exitX=1.002;exitY=0.876;exitDx=0;exitDy=0;exitPerimeter=0;entryX=-0.002;entryY=0.629;entryDx=0;entryDy=0;entryPerimeter=0;" parent="1" source="20" target="27" edge="1">
                    <mxGeometry relative="1" as="geometry">
                        <mxPoint x="630" y="275" as="sourcePoint"/>
                        <mxPoint x="750" y="365" as="targetPoint"/>
                        <Array as="points">
                            <mxPoint x="660" y="284"/>
                            <mxPoint x="660" y="342"/>
                        </Array>
                    </mxGeometry>
                </mxCell>
                <mxCell id="194" value="" style="edgeStyle=isometricEdgeStyle;endArrow=none;html=1;entryX=0.05;entryY=1;entryDx=0;entryDy=0;entryPerimeter=0;" parent="1" target="108" edge="1">
                    <mxGeometry width="50" height="100" relative="1" as="geometry">
                        <mxPoint x="690" y="255" as="sourcePoint"/>
                        <mxPoint x="720" y="245" as="targetPoint"/>
                    </mxGeometry>
                </mxCell>
                <mxCell id="197" value="" style="edgeStyle=isometricEdgeStyle;endArrow=none;html=1;entryX=0.006;entryY=0.707;entryDx=0;entryDy=0;entryPerimeter=0;" parent="1" target="130" edge="1">
                    <mxGeometry width="50" height="100" relative="1" as="geometry">
                        <mxPoint x="680" y="305" as="sourcePoint"/>
                        <mxPoint x="710" y="265" as="targetPoint"/>
                    </mxGeometry>
                </mxCell>
                <mxCell id="198" value="" style="edgeStyle=isometricEdgeStyle;endArrow=none;html=1;exitX=0.362;exitY=0.051;exitDx=0;exitDy=0;exitPerimeter=0;" parent="1" source="191" edge="1">
                    <mxGeometry width="50" height="100" relative="1" as="geometry">
                        <mxPoint x="660" y="455" as="sourcePoint"/>
                        <mxPoint x="660" y="325" as="targetPoint"/>
                    </mxGeometry>
                </mxCell>
                <mxCell id="202" style="edgeStyle=orthogonalEdgeStyle;html=1;exitX=1;exitY=0.5;exitDx=0;exitDy=0;entryX=0;entryY=0.75;entryDx=0;entryDy=0;rounded=0;curved=0;" parent="1" source="9" target="27" edge="1">
                    <mxGeometry relative="1" as="geometry">
                        <Array as="points">
                            <mxPoint x="360" y="180"/>
                            <mxPoint x="360" y="352"/>
                        </Array>
                    </mxGeometry>
                </mxCell>
                <mxCell id="204" value="&lt;span style=&quot;font-size: 14px;&quot;&gt;&lt;font style=&quot;color: rgb(0, 0, 0);&quot;&gt;Размеры&amp;nbsp;&lt;/font&gt;&lt;/span&gt;&lt;div&gt;&lt;span style=&quot;font-size: 14px;&quot;&gt;&lt;font style=&quot;color: rgb(0, 0, 0);&quot;&gt;изображения&lt;/font&gt;&lt;/span&gt;&lt;/div&gt;" style="text;html=1;align=center;verticalAlign=middle;resizable=0;points=[];autosize=1;strokeColor=none;fillColor=none;" parent="1" vertex="1">
                    <mxGeometry x="250" y="295" width="110" height="50" as="geometry"/>
                </mxCell>
                <mxCell id="207" value="" style="edgeStyle=isometricEdgeStyle;endArrow=none;html=1;" parent="1" edge="1">
                    <mxGeometry width="50" height="100" relative="1" as="geometry">
                        <mxPoint x="630" y="315" as="sourcePoint"/>
                        <mxPoint x="667" y="269.65" as="targetPoint"/>
                    </mxGeometry>
                </mxCell>
                <mxCell id="208" value="" style="edgeStyle=isometricEdgeStyle;endArrow=none;html=1;exitX=0.818;exitY=0.2;exitDx=0;exitDy=0;exitPerimeter=0;" parent="1" source="204" edge="1">
                    <mxGeometry width="50" height="100" relative="1" as="geometry">
                        <mxPoint x="305.8" y="310" as="sourcePoint"/>
                        <mxPoint x="360" y="275" as="targetPoint"/>
                    </mxGeometry>
                </mxCell>
                <mxCell id="233" style="edgeStyle=none;html=1;fontSize=14;entryX=0.352;entryY=0;entryDx=0;entryDy=0;entryPerimeter=0;" parent="1" edge="1">
                    <mxGeometry relative="1" as="geometry">
                        <mxPoint x="240.16000000000008" y="135" as="targetPoint"/>
                        <mxPoint x="239.76" y="35" as="sourcePoint"/>
                    </mxGeometry>
                </mxCell>
                <mxCell id="234" value="Цветовая&amp;nbsp;&lt;div&gt;&lt;font&gt;&lt;font style=&quot;color: rgb(0, 0, 0);&quot;&gt;модель&amp;nbsp;&lt;/font&gt;&lt;span style=&quot;background-color: transparent;&quot;&gt;&lt;font style=&quot;color: rgb(0, 0, 0);&quot;&gt;RGB&lt;/font&gt;&lt;/span&gt;&lt;/font&gt;&lt;/div&gt;" style="text;html=1;align=center;verticalAlign=middle;resizable=0;points=[];autosize=1;strokeColor=none;fillColor=none;fontSize=14;" parent="1" vertex="1">
                    <mxGeometry x="234" y="35" width="110" height="50" as="geometry"/>
                </mxCell>
                <mxCell id="235" style="edgeStyle=none;html=1;fontSize=14;endArrow=none;endFill=0;startArrow=classic;startFill=1;exitX=0.132;exitY=1.001;exitDx=0;exitDy=0;exitPerimeter=0;jumpStyle=arc;" parent="1" source="20" edge="1">
                    <mxGeometry relative="1" as="geometry">
                        <mxPoint x="456" y="480" as="targetPoint"/>
                        <mxPoint x="460" y="410" as="sourcePoint"/>
                    </mxGeometry>
                </mxCell>
                <mxCell id="236" style="edgeStyle=none;html=1;fontSize=14;startArrow=classic;startFill=1;endArrow=none;endFill=0;exitX=0.25;exitY=1;exitDx=0;exitDy=0;jumpStyle=arc;" parent="1" edge="1">
                    <mxGeometry relative="1" as="geometry">
                        <mxPoint x="491" y="480" as="targetPoint"/>
                        <mxPoint x="491" y="295" as="sourcePoint"/>
                    </mxGeometry>
                </mxCell>
                <mxCell id="237" value="Алгоритм &lt;br&gt;сжатия&amp;nbsp;&lt;div&gt;&lt;font style=&quot;color: rgb(0, 0, 0);&quot;&gt;LZW&lt;/font&gt;&lt;/div&gt;" style="text;html=1;align=center;verticalAlign=middle;resizable=0;points=[];autosize=1;strokeColor=none;fillColor=none;fontSize=14;" parent="1" vertex="1">
                    <mxGeometry x="369" y="410" width="90" height="60" as="geometry"/>
                </mxCell>
                <mxCell id="238" value="Алгоритм&lt;br&gt;сжатия&amp;nbsp;&lt;div&gt;&lt;font style=&quot;color: rgb(0, 0, 0);&quot;&gt;Хаффмана&lt;/font&gt;&lt;/div&gt;" style="text;html=1;align=center;verticalAlign=middle;resizable=0;points=[];autosize=1;strokeColor=none;fillColor=none;fontSize=14;" parent="1" vertex="1">
                    <mxGeometry x="490" y="410" width="100" height="60" as="geometry"/>
                </mxCell>
            </root>
        </mxGraphModel>
    </diagram>
</mxfile>